<svg width="43" height="53" viewBox="0 0 43 53" fill="none" xmlns="http://www.w3.org/2000/svg">
<path d="M41.1314 5.83772C41.616 5.85532 42.0796 5.64335 42.4203 5.24845C42.761 4.85354 42.9508 4.30804 42.948 3.73195C42.9453 3.15587 42.7501 2.59638 42.4055 2.17658C42.0609 1.75677 41.595 1.51104 41.1104 1.49344L5.4814 0.199073C4.02765 0.14626 2.63675 0.782159 1.61469 1.96688C0.592621 3.1516 0.0231187 4.7881 0.0314578 6.51636L0.241073 49.9592C0.243853 50.5352 0.439015 51.0947 0.783635 51.5145C1.12825 51.9343 1.5941 52.1801 2.07868 52.1977C2.56327 52.2153 3.0269 52.0033 3.36759 51.6084C3.70828 51.2135 3.89811 50.668 3.89533 50.0919L3.68572 6.64912C3.68294 6.07303 3.87277 5.52753 4.21346 5.13262C4.55414 4.73771 5.01778 4.52575 5.50237 4.54335L41.1314 5.83772Z" fill="#D1BF1B" fill-opacity="0.77"/>
</svg>
